<svg xmlns="http://www.w3.org/2000/svg"  viewBox="0 0 50 50" width="50px" height="50px"><path d="M 23.6875 0 C 23.421875 0 23.1875 0.09375 23 0.28125 L 15.0625 8.21875 C 14.875 8.40625 14.78125 8.671875 14.78125 8.9375 C 14.78125 9.203125 14.875 9.4375 15.0625 9.625 L 20.15625 14.75 C 23.28125 11.625 27.558594 7.378906 29.53125 5.40625 L 24.40625 0.28125 C 24.21875 0.09375 23.953125 0 23.6875 0 Z M 34.53125 4.71875 C 33.609375 4.71875 32.710938 5.039063 32.03125 5.71875 C 31.867188 5.882813 24.027344 13.722656 19.90625 17.84375 C 19.71875 18.03125 19.59375 18.296875 19.59375 18.5625 C 19.59375 18.828125 19.71875 19.0625 19.90625 19.25 L 21.0625 20.40625 C 19.246094 20.195313 17.652344 20.535156 16.65625 21.53125 C 16.269531 21.921875 16.269531 22.546875 16.65625 22.9375 L 19.46875 25.75 C 19.183594 26.269531 19 26.828125 19 27.4375 C 19 28.386719 19.359375 29.296875 20.03125 29.96875 C 20.703125 30.640625 21.613281 31 22.5625 31 C 23.171875 31 23.730469 30.816406 24.25 30.53125 L 27.0625 33.34375 C 27.453125 33.730469 28.078125 33.730469 28.46875 33.34375 C 29.464844 32.347656 29.804688 30.753906 29.59375 28.9375 L 30.75 30.09375 C 30.945313 30.289063 31.179688 30.40625 31.4375 30.40625 C 31.695313 30.40625 31.960938 30.289063 32.15625 30.09375 C 32.15625 30.09375 44.136719 18.113281 44.28125 17.96875 C 44.953125 17.296875 45.34375 16.417969 45.34375 15.46875 C 45.34375 14.519531 44.953125 13.609375 44.28125 12.9375 L 37.0625 5.71875 C 36.390625 5.046875 35.453125 4.71875 34.53125 4.71875 Z M 44.59375 20.46875 C 42.464844 22.59375 37.773438 27.320313 35.25 29.84375 L 40.34375 34.9375 C 40.539063 35.132813 40.804688 35.21875 41.0625 35.21875 C 41.320313 35.21875 41.585938 35.132813 41.78125 34.9375 L 49.71875 27 C 49.90625 26.8125 50 26.578125 50 26.3125 C 50 26.046875 49.90625 25.78125 49.71875 25.59375 Z M 19.875 22.375 C 20.171875 22.355469 20.5 22.367188 20.84375 22.40625 C 22.222656 22.566406 23.84375 23.21875 25.3125 24.6875 C 26.78125 26.15625 27.433594 27.777344 27.59375 29.15625 C 27.671875 29.84375 27.621094 30.453125 27.5 30.9375 L 25.0625 28.53125 L 21.46875 24.9375 L 19.0625 22.5 C 19.304688 22.4375 19.578125 22.394531 19.875 22.375 Z M 0.875 35.0625 C 0.371094 35.125 -0.00390625 35.554688 0 36.0625 C 0 43.738281 6.261719 50 13.9375 50 C 14.296875 50.003906 14.632813 49.816406 14.816406 49.503906 C 14.996094 49.191406 14.996094 48.808594 14.816406 48.496094 C 14.632813 48.183594 14.296875 47.996094 13.9375 48 C 7.339844 48 2 42.660156 2 36.0625 C 2.003906 35.773438 1.878906 35.5 1.664063 35.308594 C 1.449219 35.117188 1.160156 35.027344 0.875 35.0625 Z M 8.1875 35.0625 C 7.710938 35.152344 7.367188 35.574219 7.375 36.0625 C 7.375 39.660156 10.339844 42.625 13.9375 42.625 C 14.296875 42.628906 14.632813 42.441406 14.816406 42.128906 C 14.996094 41.816406 14.996094 41.433594 14.816406 41.121094 C 14.632813 40.808594 14.296875 40.621094 13.9375 40.625 C 11.417969 40.625 9.375 38.578125 9.375 36.0625 C 9.375 35.78125 9.257813 35.511719 9.050781 35.320313 C 8.839844 35.128906 8.5625 35.035156 8.28125 35.0625 C 8.25 35.0625 8.21875 35.0625 8.1875 35.0625 Z"/></svg>